REM DIRINDEX 1\2\6,1\2\4\7,1\2\4\8,1\2\5\9,1\3\12,1\3\10\13,1\3\10\14,1\3\10\15,1\3\11\16,1\3\11\17
REM DIRNAME cjc048,folder01,folder02,folder03,folder04,folder05,folder06,folder07,folder08,folder09,folder10,folder11,folder12,folder13,folder14,folder15,folder16
TITLE ""
FILE "051.mp3" MP3
  TRACK 01 AUDIO
    TITLE "12:cjc048_07055"
    INDEX 01 00:00:00
  TRACK 02 AUDIO
    TITLE "16:cjc048_07056"
    INDEX 01 00:02:18
  TRACK 03 AUDIO
    TITLE "17:cjc048_07057"
    INDEX 01 00:03:21
  TRACK 04 AUDIO
    TITLE "16:cjc048_07058"
    INDEX 01 00:05:12
  TRACK 05 AUDIO
    TITLE "17:cjc048_07059"
    INDEX 01 00:06:31
  TRACK 06 AUDIO
    TITLE "16:cjc048_07060"
    INDEX 01 00:08:05
  TRACK 07 AUDIO
    TITLE "17:cjc048_07061"
    INDEX 01 00:08:73
  TRACK 08 AUDIO
    TITLE "16:cjc048_07062"
    INDEX 01 00:10:35
  TRACK 09 AUDIO
    TITLE "17:cjc048_07063"
    INDEX 01 00:11:52
  TRACK 10 AUDIO
    TITLE "16:cjc048_07064"
    INDEX 01 00:12:67
  TRACK 11 AUDIO
    TITLE "17:cjc048_07065"
    INDEX 01 00:14:15
  TRACK 12 AUDIO
    TITLE "16:cjc048_07066"
    INDEX 01 00:15:58
  TRACK 13 AUDIO
    TITLE "17:cjc048_07067"
    INDEX 01 00:16:67
  TRACK 14 AUDIO
    TITLE "16:cjc048_07068"
    INDEX 01 00:18:72
  TRACK 15 AUDIO
    TITLE "17:cjc048_07069"
    INDEX 01 00:20:22
  TRACK 16 AUDIO
    TITLE "16:cjc048_07070"
    INDEX 01 00:22:25
  TRACK 17 AUDIO
    TITLE "17:cjc048_07071"
    INDEX 01 00:23:22
  TRACK 18 AUDIO
    TITLE "16:cjc048_07072"
    INDEX 01 00:25:45
  TRACK 19 AUDIO
    TITLE "17:cjc048_07073"
    INDEX 01 00:26:42
  TRACK 20 AUDIO
    TITLE "16:cjc048_07074"
    INDEX 01 00:28:72
  TRACK 21 AUDIO
    TITLE "17:cjc048_07075"
    INDEX 01 00:29:74
  TRACK 22 AUDIO
    TITLE "16:cjc048_07076"
    INDEX 01 00:31:35
  TRACK 23 AUDIO
    TITLE "17:cjc048_07077"
    INDEX 01 00:32:21
  TRACK 24 AUDIO
    TITLE "16:cjc048_07078"
    INDEX 01 00:33:34
  TRACK 25 AUDIO
    TITLE "17:cjc048_07079"
    INDEX 01 00:34:49
  TRACK 26 AUDIO
    TITLE "16:cjc048_07080"
    INDEX 01 00:36:17
  TRACK 27 AUDIO
    TITLE "17:cjc048_07081"
    INDEX 01 00:37:12
  TRACK 28 AUDIO
    TITLE "16:cjc048_07082"
    INDEX 01 00:38:49
  TRACK 29 AUDIO
    TITLE "17:cjc048_07083"
    INDEX 01 00:40:13
  TRACK 30 AUDIO
    TITLE "16:cjc048_07084"
    INDEX 01 00:41:55
  TRACK 31 AUDIO
    TITLE "17:cjc048_07085"
    INDEX 01 00:42:70
  TRACK 32 AUDIO
    TITLE "16:cjc048_07086"
    INDEX 01 00:44:32
  TRACK 33 AUDIO
    TITLE "17:cjc048_07087"
    INDEX 01 00:45:39
  TRACK 34 AUDIO
    TITLE "16:cjc048_07088"
    INDEX 01 00:46:62
  TRACK 35 AUDIO
    TITLE "17:cjc048_07089"
    INDEX 01 00:47:62
  TRACK 36 AUDIO
    TITLE "16:cjc048_07090"
    INDEX 01 00:49:18
  TRACK 37 AUDIO
    TITLE "17:cjc048_07091"
    INDEX 01 00:50:44
  TRACK 38 AUDIO
    TITLE "16:cjc048_07092"
    INDEX 01 00:52:10
  TRACK 39 AUDIO
    TITLE "17:cjc048_07093"
    INDEX 01 00:53:13
  TRACK 40 AUDIO
    TITLE "16:cjc048_07094"
    INDEX 01 00:54:27
  TRACK 41 AUDIO
    TITLE "17:cjc048_07095"
    INDEX 01 00:55:24
  TRACK 42 AUDIO
    TITLE "16:cjc048_07096"
    INDEX 01 00:56:45
  TRACK 43 AUDIO
    TITLE "17:cjc048_07097"
    INDEX 01 00:57:45
  TRACK 44 AUDIO
    TITLE "16:cjc048_07098"
    INDEX 01 00:59:06
  TRACK 45 AUDIO
    TITLE "17:cjc048_07099"
    INDEX 01 01:00:17
  TRACK 46 AUDIO
    TITLE "16:cjc048_07100"
    INDEX 01 01:01:58
  TRACK 47 AUDIO
    TITLE "17:cjc048_07101"
    INDEX 01 01:02:67
  TRACK 48 AUDIO
    TITLE "16:cjc048_07102"
    INDEX 01 01:04:17
  TRACK 49 AUDIO
    TITLE "17:cjc048_07103"
    INDEX 01 01:05:09
  TRACK 50 AUDIO
    TITLE "16:cjc048_07104"
    INDEX 01 01:06:32
  TRACK 51 AUDIO
    TITLE "17:cjc048_07105"
    INDEX 01 01:07:49
  TRACK 52 AUDIO
    TITLE "16:cjc048_07106"
    INDEX 01 01:09:01
  TRACK 53 AUDIO
    TITLE "17:cjc048_07107"
    INDEX 01 01:10:04
  TRACK 54 AUDIO
    TITLE "16:cjc048_07108"
    INDEX 01 01:11:21
  TRACK 55 AUDIO
    TITLE "17:cjc048_07109"
    INDEX 01 01:12:40
  TRACK 56 AUDIO
    TITLE "16:cjc048_07110"
    INDEX 01 01:14:02
  TRACK 57 AUDIO
    TITLE "17:cjc048_07111"
    INDEX 01 01:15:35
  TRACK 58 AUDIO
    TITLE "16:cjc048_07112"
    INDEX 01 01:16:61
  TRACK 59 AUDIO
    TITLE "17:cjc048_07113"
    INDEX 01 01:17:63
  TRACK 60 AUDIO
    TITLE "16:cjc048_07114"
    INDEX 01 01:19:36
  TRACK 61 AUDIO
    TITLE "17:cjc048_07115"
    INDEX 01 01:20:40
  TRACK 62 AUDIO
    TITLE "16:cjc048_07116"
    INDEX 01 01:22:46
  TRACK 63 AUDIO
    TITLE "17:cjc048_07117"
    INDEX 01 01:23:44
  TRACK 64 AUDIO
    TITLE "16:cjc048_07118"
    INDEX 01 01:24:65
  TRACK 65 AUDIO
    TITLE "17:cjc048_07119"
    INDEX 01 01:26:11
  TRACK 66 AUDIO
    TITLE "16:cjc048_07120"
    INDEX 01 01:27:55
  TRACK 67 AUDIO
    TITLE "17:cjc048_07121"
    INDEX 01 01:29:35
  TRACK 68 AUDIO
    TITLE "16:cjc048_07122"
    INDEX 01 01:31:32
  TRACK 69 AUDIO
    TITLE "17:cjc048_07123"
    INDEX 01 01:32:49
  TRACK 70 AUDIO
    TITLE "16:cjc048_07124"
    INDEX 01 01:34:12
  TRACK 71 AUDIO
    TITLE "17:cjc048_07125"
    INDEX 01 01:35:57
  TRACK 72 AUDIO
    TITLE "16:cjc048_07126"
    INDEX 01 01:37:03
  TRACK 73 AUDIO
    TITLE "17:cjc048_07127"
    INDEX 01 01:38:32
  TRACK 74 AUDIO
    TITLE "16:cjc048_07128"
    INDEX 01 01:40:19
  TRACK 75 AUDIO
    TITLE "17:cjc048_07129"
    INDEX 01 01:41:56
  TRACK 76 AUDIO
    TITLE "16:cjc048_07130"
    INDEX 01 01:43:11
  TRACK 77 AUDIO
    TITLE "17:cjc048_07131"
    INDEX 01 01:44:64
  TRACK 78 AUDIO
    TITLE "16:cjc048_07132"
    INDEX 01 01:46:47
  TRACK 79 AUDIO
    TITLE "17:cjc048_07133"
    INDEX 01 01:47:64
  TRACK 80 AUDIO
    TITLE "16:cjc048_07134"
    INDEX 01 01:49:37
  TRACK 81 AUDIO
    TITLE "17:cjc048_07135"
    INDEX 01 01:50:39
  TRACK 82 AUDIO
    TITLE "16:cjc048_07136"
    INDEX 01 01:51:62
  TRACK 83 AUDIO
    TITLE "17:cjc048_07137"
    INDEX 01 01:52:71
  TRACK 84 AUDIO
    TITLE "16:cjc048_07138"
    INDEX 01 01:54:19
  TRACK 85 AUDIO
    TITLE "17:cjc048_07139"
    INDEX 01 01:56:12
  TRACK 86 AUDIO
    TITLE "16:cjc048_07140"
    INDEX 01 01:57:53
  TRACK 87 AUDIO
    TITLE "17:cjc048_07141"
    INDEX 01 01:58:60
  TRACK 88 AUDIO
    TITLE "16:cjc048_07142"
    INDEX 01 02:00:10
  TRACK 89 AUDIO
    TITLE "17:cjc048_07143"
    INDEX 01 02:01:37
  TRACK 90 AUDIO
    TITLE "16:cjc048_07144"
    INDEX 01 02:03:12
  TRACK 91 AUDIO
    TITLE "17:cjc048_07145"
    INDEX 01 02:04:17
  TRACK 92 AUDIO
    TITLE "16:cjc048_07146"
    INDEX 01 02:05:36
  TRACK 93 AUDIO
    TITLE "17:cjc048_07147"
    INDEX 01 02:06:54
  TRACK 94 AUDIO
    TITLE "16:cjc048_07148"
    INDEX 01 02:07:67
  TRACK 95 AUDIO
    TITLE "17:cjc048_07149"
    INDEX 01 02:09:09
  TRACK 96 AUDIO
    TITLE "0:"
    INDEX 01 02:11:31
